# xmcd
#
# Track frame offsets:
#  150
#  16657
#  35014
#  64952
#
# Disc length: 1625 seconds
#
# Revision: 3
# Processed by: cddbd v1.5.1PL2 Copyright (c) Steve Scherf et al.
# Submitted via: Collectorz.com_Music_Collector 6.11
#
DISCID=2c065704
DTITLE=Shakira fearturing Wyclef Jean - Hips Don't Lie
DYEAR=2006
DGENRE=Pop
TTITLE0=Hips Don't Lie (Album Version)
TTITLE1=Dreams For Plans
TTITLE2=Hips Don't Lie (Wyclef Mix Show Mix)
TTITLE3=Hips Don't Lie (Video)
EXTD=
EXTT0=
EXTT1=
EXTT2=
EXTT3=
PLAYORDER=
